<?xml version="1.0" standalone="no"?>
<!DOCTYPE svg PUBLIC "-//W3C//DTD SVG 20010904//EN"
 "http://www.w3.org/TR/2001/REC-SVG-20010904/DTD/svg10.dtd">
<svg version="1.0" xmlns="http://www.w3.org/2000/svg"
 width="3072.000000pt" height="2507.000000pt" viewBox="0 0 3072.000000 2507.000000"
 preserveAspectRatio="xMidYMid meet">

<g transform="translate(0.000000,2507.000000) scale(0.100000,-0.100000)"
fill="#000000" stroke="none">
<path d="M12388 19223 c-9 -10 -23 -32 -31 -49 -22 -42 -110 -352 -162 -568
-79 -330 -120 -547 -215 -1141 -23 -143 -50 -312 -61 -375 -12 -63 -24 -176
-29 -250 -10 -174 -36 -274 -116 -448 -19 -41 -34 -75 -34 -77 0 -2 -29 -65
-65 -140 -36 -75 -95 -205 -131 -288 -99 -228 -175 -361 -217 -376 -12 -5 -53
-14 -92 -21 -38 -7 -91 -19 -116 -27 -27 -8 -98 -15 -165 -16 -134 -3 -160
-11 -281 -91 -135 -89 -197 -157 -223 -243 -17 -56 1 -105 59 -163 51 -51 90
-72 201 -110 70 -23 75 -27 78 -56 3 -27 -4 -38 -45 -73 -54 -46 -283 -163
-320 -163 -13 0 -50 13 -81 30 -53 28 -70 32 -183 38 -95 5 -127 10 -136 22
-15 18 -17 108 -4 117 6 3 7 43 4 94 -5 81 -3 100 31 222 62 227 96 320 153
429 94 178 226 356 325 442 34 29 80 73 102 97 23 24 80 70 128 102 47 32 92
67 100 77 7 10 24 26 38 35 32 21 151 46 185 39 78 -14 171 -229 204 -468 24
-171 51 -184 51 -26 0 242 -80 498 -182 575 -104 80 -208 52 -441 -118 -270
-198 -563 -595 -666 -905 -39 -115 -105 -376 -123 -485 -16 -100 -16 -680 1
-816 6 -52 16 -134 22 -184 17 -150 109 -499 165 -625 44 -102 83 -168 142
-240 48 -59 208 -210 223 -210 6 0 23 -9 38 -21 38 -28 80 -27 183 5 115 35
179 85 304 232 132 154 201 260 289 439 283 578 373 935 470 1855 9 85 21 165
27 177 15 30 93 62 180 73 40 5 127 21 193 35 131 27 231 32 259 12 16 -12 16
-22 7 -117 -6 -58 -13 -135 -17 -172 -3 -38 -11 -72 -19 -78 -8 -6 -11 -18 -9
-25 3 -8 1 -22 -5 -32 -9 -16 -10 -15 -11 8 0 36 -123 159 -151 152 -11 -3
-31 0 -44 7 -43 23 -139 -23 -207 -98 -47 -52 -78 -114 -113 -222 -23 -71 -26
-97 -22 -158 7 -87 41 -167 90 -208 27 -23 37 -26 79 -21 63 8 171 63 292 150
l99 71 23 -28 c13 -15 24 -37 24 -49 1 -30 33 -99 55 -117 17 -14 17 -11 10
73 -8 96 -3 102 53 73 15 -8 46 -17 67 -21 82 -14 81 -13 150 -170 45 -104 70
-145 91 -145 21 0 17 34 -17 155 -16 60 -31 124 -32 142 -2 33 0 35 63 60 206
82 336 235 362 426 24 181 -9 299 -117 415 -36 39 -55 66 -49 72 5 5 101 24
212 41 251 39 242 43 242 -96 0 -67 6 -110 21 -156 20 -59 21 -90 25 -429 4
-342 13 -470 34 -470 16 0 18 15 25 200 3 102 8 235 10 295 3 61 5 239 5 396
l0 287 26 17 c47 31 133 54 262 70 70 9 159 27 198 40 70 23 111 24 126 1 12
-17 9 -132 -7 -246 -18 -135 -18 -221 0 -343 24 -157 61 -267 86 -252 5 4 7 9
5 13 -8 14 -19 231 -19 367 1 145 16 321 34 390 28 108 113 139 594 215 105
16 207 32 227 36 36 6 37 6 48 -37 14 -51 8 -127 -16 -214 -9 -33 -16 -81 -15
-107 1 -31 -6 -65 -19 -95 -12 -27 -23 -52 -24 -58 -2 -5 -6 -17 -9 -25 -3 -8
-8 -26 -10 -40 -3 -15 -5 -8 -6 18 0 23 -6 42 -11 42 -6 0 -22 26 -36 58 -45
102 -101 144 -194 144 -83 0 -136 -28 -228 -119 -118 -117 -162 -201 -207
-395 -18 -82 -19 -118 -1 -183 36 -138 147 -251 262 -269 30 -4 45 -2 54 9 10
12 7 16 -16 25 -80 29 -162 99 -194 166 -42 87 -23 296 38 408 29 53 171 172
247 207 40 19 90 24 119 13 29 -11 106 -147 106 -187 0 -28 6 -40 25 -53 15
-10 25 -26 25 -41 0 -46 -97 -424 -284 -1108 -67 -247 -121 -452 -120 -454 8
-10 38 28 65 81 36 71 68 169 120 363 22 83 62 218 89 300 55 165 109 359 141
505 76 350 102 481 134 680 53 323 53 323 83 359 24 28 38 34 122 50 52 10
147 29 210 41 63 12 131 22 151 21 33 -1 114 11 258 39 29 5 78 10 107 10 l54
0 0 -38 c0 -21 -13 -79 -29 -128 -25 -80 -30 -113 -41 -321 -7 -127 -10 -247
-6 -265 3 -18 2 -56 -2 -84 -6 -35 -4 -65 5 -95 7 -24 18 -72 24 -106 12 -71
64 -162 81 -145 7 7 7 20 0 44 -15 46 -32 212 -32 302 0 84 14 160 41 223 47
110 91 498 66 586 -7 25 -4 29 28 43 61 25 144 43 300 63 91 11 156 15 166 10
15 -7 16 -29 14 -181 -2 -104 -12 -231 -24 -318 -25 -173 -25 -177 -47 -402
-15 -167 -14 -248 5 -248 15 0 79 302 106 500 8 63 22 156 31 205 25 141 41
344 32 400 -4 28 -4 53 2 59 10 10 36 15 270 50 210 31 359 51 535 71 77 9
166 21 198 26 74 13 93 6 117 -39 18 -34 19 -35 20 -12 0 38 26 68 68 79 20 5
91 17 157 26 274 37 337 47 475 76 189 39 220 47 221 62 5 41 1 54 -21 69 -30
22 -86 23 -137 4 -21 -8 -67 -17 -103 -19 -42 -3 -92 -16 -140 -37 -97 -41
-117 -47 -192 -55 -35 -4 -66 -9 -69 -11 -19 -11 -274 -32 -290 -24 -9 6 -23
27 -29 47 -7 21 -36 81 -65 133 -29 52 -74 136 -101 185 -26 50 -65 116 -86
149 -56 87 -80 158 -77 235 1 70 -12 168 -30 214 -6 16 -11 52 -11 82 0 46
-10 73 -84 221 -89 178 -136 245 -185 262 -25 9 -33 7 -55 -13 -52 -48 -45
-107 35 -275 28 -58 66 -148 86 -200 19 -52 48 -120 63 -150 100 -194 110
-224 110 -319 0 -104 -13 -211 -40 -331 -39 -178 -23 -233 19 -64 34 135 82
288 95 302 27 28 65 -26 173 -243 107 -217 116 -246 74 -260 -24 -7 -438 -72
-581 -90 -213 -27 -562 -77 -1035 -147 -258 -38 -504 -73 -545 -78 -41 -5
-136 -20 -210 -34 -161 -31 -238 -35 -251 -15 -5 8 -7 30 -4 49 22 142 47 339
60 470 31 312 64 535 90 602 8 20 26 81 39 135 14 55 36 124 50 155 14 31 43
124 66 206 36 134 41 162 41 265 0 127 -18 200 -66 263 -22 28 -29 32 -45 24
-33 -18 -44 -51 -51 -155 -4 -55 -15 -125 -24 -155 -9 -32 -22 -143 -30 -270
-8 -118 -18 -228 -21 -245 -11 -53 -98 -238 -162 -345 -92 -154 -436 -615
-554 -742 -193 -207 -188 -199 -209 -306 -11 -53 -26 -103 -33 -110 -7 -7 -57
-19 -112 -27 -54 -8 -121 -19 -149 -25 -63 -13 -189 -36 -330 -60 -60 -10
-141 -26 -180 -35 -57 -13 -77 -14 -107 -4 -32 10 -40 9 -72 -10 -21 -13 -59
-25 -93 -28 -32 -3 -125 -18 -208 -34 -82 -17 -193 -36 -245 -44 -52 -7 -157
-25 -233 -39 -76 -14 -160 -26 -186 -26 l-48 0 -27 93 c-49 164 -55 179 -118
295 -66 121 -155 228 -236 284 -34 23 -60 32 -114 38 -38 4 -72 11 -76 14 -9
10 -3 75 13 126 7 25 48 135 90 245 226 587 287 767 394 1160 107 389 133 541
133 780 0 217 -35 342 -115 411 -45 38 -67 42 -89 17z m106 -215 c34 -55 49
-324 26 -478 -18 -128 -93 -464 -106 -480 -7 -8 -16 -33 -19 -55 -4 -22 -11
-47 -16 -56 -4 -8 -26 -82 -49 -164 -22 -81 -52 -171 -66 -199 -15 -28 -34
-73 -44 -101 -46 -126 -72 -190 -90 -216 -11 -15 -20 -32 -20 -38 0 -6 -4 -19
-9 -29 -5 -9 -21 -48 -37 -87 -46 -119 -56 -116 -38 10 7 50 15 135 18 190 2
57 15 147 30 210 14 61 26 126 26 145 0 78 54 346 105 522 19 68 40 166 46
218 11 96 49 269 93 415 14 44 27 95 31 113 7 34 68 102 91 102 8 0 20 -10 28
-22z m2876 -1874 c10 -35 10 -57 -5 -135 -9 -53 -14 -110 -11 -132 4 -23 2
-45 -5 -53 -6 -7 -12 -41 -13 -76 -2 -35 -11 -101 -20 -148 -9 -47 -16 -107
-16 -135 0 -27 -10 -92 -22 -143 l-22 -93 -51 -14 c-27 -8 -84 -19 -125 -25
-41 -6 -146 -24 -234 -40 -154 -29 -278 -38 -303 -22 -19 12 33 88 130 190
146 152 384 454 572 725 37 54 76 104 86 110 11 7 19 21 20 32 0 11 2 16 4 10
1 -5 8 -29 15 -51z m-3249 -811 c63 -34 231 -222 249 -278 7 -22 28 -72 47
-110 34 -71 56 -164 43 -185 -10 -17 -156 -52 -271 -66 -30 -3 -101 -15 -159
-26 -58 -11 -126 -22 -152 -25 -77 -9 -77 -10 -32 342 42 332 59 379 117 328
19 -17 20 -17 44 15 31 39 51 40 114 5z m-381 -339 c-9 -26 -9 -42 0 -63 13
-34 -9 -199 -37 -277 -23 -61 -53 -77 -143 -78 l-65 -1 2 33 c0 19 17 60 38
93 20 32 55 100 79 151 44 94 72 131 97 126 9 -2 13 4 11 15 -2 9 2 17 8 17 5
0 9 3 9 8 -1 4 0 14 1 22 1 10 3 11 7 3 2 -7 -1 -29 -7 -49z m4537 -226 c-3
-8 -6 -5 -6 6 -1 11 2 17 5 13 3 -3 4 -12 1 -19z m-3297 -43 c34 -12 46 -13
59 -3 9 7 -10 -15 -42 -48 -33 -34 -76 -88 -98 -120 -39 -59 -89 -193 -89
-240 0 -70 74 -153 161 -178 29 -9 58 -16 65 -16 6 0 17 -6 24 -14 32 -40 -65
-138 -205 -207 -75 -37 -73 -38 -164 68 -35 41 -79 84 -97 96 -39 25 -40 35
-15 108 31 92 33 135 11 263 -26 152 -26 200 0 226 11 11 28 20 38 20 32 1 97
11 127 20 17 5 57 12 90 16 33 3 64 10 70 15 12 12 15 12 65 -6z m127 -200
c31 -22 66 -161 61 -243 -6 -97 -38 -111 -168 -72 -60 18 -69 24 -79 53 -11
29 -8 40 28 112 35 70 109 165 130 165 3 0 16 -7 28 -15z m-1420 -62 c13 -32
14 -48 4 -103 -7 -36 -14 -90 -17 -120 -3 -30 -9 -77 -14 -105 -6 -27 -23
-152 -39 -276 -36 -278 -62 -417 -106 -568 -80 -278 -197 -610 -249 -704 -13
-23 -38 -69 -56 -102 -98 -182 -127 -225 -226 -345 -97 -117 -215 -227 -270
-251 -27 -11 -71 -23 -99 -26 -44 -4 -57 -1 -110 32 -33 20 -75 51 -93 68 -87
84 -217 320 -248 452 -9 39 -35 133 -57 210 -33 112 -42 158 -44 233 -1 57
-10 117 -22 155 -17 56 -21 103 -24 278 -1 94 34 123 148 121 39 0 92 4 118
10 101 22 176 -19 342 -187 123 -125 160 -154 177 -137 25 25 -21 92 -158 227
-61 61 -101 131 -91 160 4 8 36 30 71 48 113 56 229 141 287 208 29 35 86 96
126 136 l73 72 -6 58 c-4 36 0 94 10 153 10 57 14 115 11 145 l-7 50 46 23
c54 26 108 29 130 7 13 -14 13 -20 1 -55 -39 -109 -44 -426 -10 -615 22 -123
56 -263 69 -280 7 -9 16 -11 23 -7 10 6 11 26 3 88 -27 216 -21 572 13 724 12
51 15 55 42 55 38 0 43 23 16 75 -11 22 -18 46 -15 54 7 17 55 41 104 51 19 4
42 11 50 16 8 5 30 9 48 9 29 0 35 -5 49 -37z m-720 -160 c70 -33 81 -124 31
-255 -36 -95 -48 -111 -89 -128 -26 -11 -46 -8 -153 20 -142 39 -171 57 -181
116 l-6 42 102 80 c111 88 201 141 237 142 13 0 40 -8 59 -17z m1576 -43 c-3
-11 -7 -20 -9 -20 -2 0 -4 9 -4 20 0 11 4 20 9 20 5 0 7 -9 4 -20z m-291 -37
c18 -21 62 -75 96 -121 63 -82 63 -83 51 -119 -15 -47 -84 -115 -151 -149 -61
-32 -256 -94 -274 -87 -20 7 -39 94 -39 178 1 94 21 148 81 215 46 51 150 120
180 120 12 0 36 -16 56 -37z"/>
<path d="M18128 16324 c3 -64 0 -95 -16 -145 -31 -95 -137 -493 -161 -604 -29
-132 -54 -346 -41 -359 6 -6 11 -4 14 5 3 8 17 48 31 89 15 41 44 145 65 230
22 85 46 172 54 192 15 35 49 153 102 353 13 50 31 133 39 185 18 115 11 133
-51 135 l-40 1 4 -82z"/>
<path d="M17631 16331 c-9 -6 -17 -35 -21 -74 -12 -111 -66 -202 -229 -385
-35 -40 -73 -78 -83 -83 -26 -14 -45 3 -70 61 -50 117 -126 126 -178 22 -32
-62 -41 -111 -30 -153 14 -50 46 -76 105 -84 92 -11 91 -11 142 -97 46 -79
168 -218 192 -218 22 0 10 40 -32 102 -24 35 -62 102 -86 149 -58 118 -56 139
26 200 79 58 240 242 287 327 63 114 69 160 25 215 -22 29 -27 31 -48 18z
m-488 -593 c5 -35 4 -38 -19 -38 -27 0 -28 1 -13 54 12 44 24 38 32 -16z"/>
<path d="M15799 15822 c-180 -60 -320 -296 -319 -537 1 -104 24 -172 71 -203
47 -32 139 -28 224 11 53 25 103 63 93 72 -1 2 -44 -10 -93 -26 -50 -16 -106
-29 -127 -29 -33 0 -38 4 -60 48 -18 38 -23 62 -22 122 2 143 39 228 138 317
86 77 137 107 180 108 34 0 44 -7 83 -49 24 -27 54 -68 65 -90 45 -89 73 -100
65 -23 -11 110 -88 243 -155 268 -60 23 -99 26 -143 11z"/>
</g>
</svg>
