<?xml version="1.0" standalone="no"?>
<!DOCTYPE svg PUBLIC "-//W3C//DTD SVG 20010904//EN"
 "http://www.w3.org/TR/2001/REC-SVG-20010904/DTD/svg10.dtd">
<svg version="1.0" xmlns="http://www.w3.org/2000/svg"
 width="1254.000000pt" height="986.000000pt" viewBox="0 0 1254.000000 986.000000"
 preserveAspectRatio="xMidYMid meet">

<g transform="translate(0.000000,986.000000) scale(0.100000,-0.100000)"
fill="#000000" stroke="none">
<path d="M3573 9248 c-32 -35 -47 -72 -91 -213 -178 -567 -274 -1024 -466
-2210 -81 -498 -97 -615 -111 -805 -9 -112 -39 -262 -71 -352 -31 -86 -112
-269 -219 -498 -42 -91 -113 -245 -156 -342 -130 -294 -222 -463 -276 -511
-11 -10 -78 -30 -154 -47 -191 -43 -227 -49 -389 -59 -83 -5 -164 -16 -189
-25 -63 -23 -256 -153 -332 -224 -73 -68 -126 -155 -135 -224 -8 -58 18 -117
78 -180 63 -64 111 -92 246 -143 63 -25 119 -50 124 -57 39 -62 -39 -135 -272
-252 -189 -96 -212 -100 -288 -62 -76 38 -147 54 -296 65 -98 7 -143 14 -154
25 -17 17 -18 63 -4 306 9 158 12 173 65 355 30 105 69 228 86 273 70 190 215
438 363 625 90 112 372 379 474 448 44 29 102 75 131 102 59 55 134 85 244 94
66 6 66 5 108 -32 86 -78 167 -293 216 -575 28 -162 40 -199 57 -182 15 15 3
341 -16 432 -66 316 -160 472 -311 515 -39 12 -63 13 -101 6 -156 -30 -401
-195 -629 -425 -301 -303 -545 -680 -653 -1011 -22 -66 -60 -201 -85 -300 -87
-347 -82 -290 -82 -860 0 -473 2 -523 23 -685 27 -209 49 -324 103 -529 127
-486 232 -680 499 -920 55 -48 127 -103 161 -121 56 -29 69 -32 123 -27 84 7
216 52 290 100 112 72 305 289 449 502 90 134 268 487 372 740 212 511 320
999 420 1900 32 292 43 364 62 393 24 38 114 72 257 97 72 13 180 33 238 44
211 41 330 40 349 -2 14 -30 -26 -427 -46 -467 -8 -16 -15 -40 -15 -53 0 -40
-12 -39 -32 4 -23 52 -138 167 -175 174 -16 4 -47 11 -71 17 -104 26 -263 -79
-349 -232 -42 -74 -102 -251 -110 -320 -13 -126 49 -310 123 -366 30 -23 41
-26 94 -22 79 6 241 87 405 203 66 46 122 85 125 85 13 0 56 -79 68 -124 12
-49 60 -136 75 -136 4 0 7 50 7 111 0 127 -10 119 105 80 33 -12 80 -27 105
-33 54 -16 69 -36 140 -195 59 -132 98 -200 119 -208 36 -14 34 17 -13 211
-26 108 -45 202 -42 209 3 8 60 41 128 74 254 124 392 291 433 526 38 218 3
380 -112 525 -80 101 -103 133 -103 140 0 13 341 74 485 87 108 9 111 5 120
-155 4 -73 16 -157 27 -197 22 -79 36 -345 38 -710 0 -201 13 -438 26 -477 3
-10 11 -18 19 -18 9 0 15 20 19 63 14 144 26 623 26 1048 l0 456 63 31 c76 38
146 56 319 83 73 11 191 34 262 51 117 29 131 30 155 17 24 -14 26 -21 29 -89
2 -41 -4 -140 -13 -220 -30 -259 -18 -483 35 -678 38 -138 89 -204 76 -100
-13 121 -18 568 -7 708 21 261 36 317 103 374 77 66 260 111 803 197 242 38
260 39 272 23 30 -41 29 -184 -2 -302 -8 -34 -19 -104 -24 -155 -5 -51 -17
-111 -26 -133 -10 -21 -28 -70 -41 -109 -21 -63 -23 -66 -24 -34 0 20 -8 47
-19 60 -10 13 -32 52 -50 86 -77 154 -190 211 -337 168 -147 -42 -342 -245
-422 -438 -40 -95 -82 -254 -89 -338 -11 -127 60 -293 166 -391 76 -71 140
-102 211 -102 81 -1 77 21 -11 63 -84 41 -175 126 -208 196 -46 97 -36 330 19
477 29 78 72 131 177 218 119 99 196 140 274 147 58 6 60 5 94 -31 41 -44 115
-191 115 -229 0 -15 13 -41 30 -60 21 -24 30 -45 30 -68 0 -68 -101 -466 -350
-1384 -170 -627 -183 -676 -175 -684 10 -9 43 36 80 109 43 85 80 198 160 482
35 128 91 316 124 418 68 214 139 467 175 625 64 282 140 669 191 970 30 182
60 347 66 368 16 58 63 105 123 122 95 27 470 94 589 105 65 6 164 20 220 31
56 11 148 23 205 26 l102 6 0 -45 c0 -24 -14 -93 -30 -152 -17 -59 -34 -137
-40 -174 -14 -103 -29 -404 -31 -632 -2 -191 0 -213 25 -325 29 -125 62 -210
96 -240 18 -16 20 -16 26 -1 3 8 1 37 -5 63 -23 101 -34 224 -34 373 0 142 2
163 28 245 84 272 107 414 111 689 l3 200 33 17 c80 41 444 103 570 97 l63 -3
3 -160 c3 -177 -9 -358 -38 -570 -49 -348 -79 -769 -57 -791 14 -14 25 16 56
146 36 154 69 336 120 675 50 327 61 434 61 596 0 128 0 130 24 139 68 25
1229 183 1360 184 l70 1 32 -42 32 -42 6 33 c7 37 37 69 80 86 16 6 155 28
310 50 154 22 319 47 366 55 154 28 374 76 423 91 45 15 47 17 47 53 0 73 -68
100 -185 75 -38 -8 -110 -21 -160 -29 -91 -14 -148 -32 -263 -80 -35 -14 -109
-33 -165 -41 -56 -8 -120 -19 -142 -24 -57 -12 -333 -33 -350 -26 -8 3 -32 43
-53 88 -44 94 -267 505 -318 585 -87 137 -100 180 -114 374 -6 84 -19 175 -30
215 -11 38 -20 89 -20 114 0 69 -15 112 -102 288 -109 222 -181 330 -241 362
l-46 25 -28 -21 c-15 -11 -36 -37 -47 -58 -16 -33 -17 -45 -7 -94 6 -31 34
-108 62 -171 28 -64 84 -195 124 -291 40 -96 93 -216 118 -267 90 -178 118
-258 124 -352 7 -107 -9 -262 -48 -453 -29 -147 -38 -251 -20 -233 6 6 28 78
51 160 60 222 110 366 128 372 30 12 89 -76 197 -288 101 -200 155 -323 155
-354 0 -8 -10 -20 -22 -26 -29 -16 -411 -76 -949 -149 -244 -34 -748 -105
-1119 -160 -371 -54 -729 -106 -795 -115 -66 -9 -211 -32 -323 -51 -198 -33
-286 -41 -308 -26 -23 15 -23 49 1 210 13 92 35 273 50 402 42 387 76 649 100
760 25 120 124 463 153 530 24 56 84 255 114 375 28 117 31 345 5 444 -25 94
-82 181 -117 181 -44 0 -64 -53 -80 -215 -6 -60 -17 -138 -25 -171 -18 -79
-32 -192 -45 -379 -26 -364 -28 -372 -153 -622 -91 -181 -213 -365 -454 -688
-210 -281 -322 -418 -463 -570 -142 -153 -164 -188 -194 -318 -14 -59 -30
-117 -36 -127 -13 -24 -50 -34 -232 -65 -176 -29 -486 -85 -718 -130 -150 -29
-182 -32 -223 -23 -43 9 -55 7 -105 -15 -33 -14 -104 -32 -167 -42 -60 -9
-166 -27 -235 -40 -282 -54 -810 -137 -874 -139 l-69 -1 -13 40 c-6 22 -31
100 -54 173 -72 233 -204 456 -355 600 -98 95 -138 116 -249 131 -43 6 -82 14
-87 17 -14 8 -11 73 6 138 9 32 49 147 89 255 41 108 126 333 189 501 267 711
496 1517 537 1892 15 147 13 459 -5 562 -25 143 -97 271 -176 312 -38 19 -52
18 -76 -8z m138 -288 c34 -46 51 -210 46 -440 -5 -186 -8 -222 -41 -380 -46
-220 -96 -429 -108 -454 -6 -10 -18 -46 -28 -80 -91 -318 -147 -493 -175 -556
-19 -41 -57 -136 -85 -210 -29 -74 -67 -164 -85 -200 -19 -36 -57 -121 -85
-190 -77 -187 -80 -185 -56 41 8 74 20 186 25 250 6 64 25 181 41 260 16 79
30 160 30 181 0 84 65 402 144 707 19 73 45 195 56 270 27 169 58 309 116 521
59 213 59 212 109 266 47 50 67 53 96 14z m3844 -2526 c4 -22 1 -67 -5 -100
-6 -32 -16 -111 -20 -174 -9 -111 -13 -146 -46 -365 -8 -55 -22 -159 -29 -231
-8 -72 -24 -174 -36 -227 l-22 -95 -61 -16 c-34 -8 -196 -38 -361 -66 -384
-66 -535 -76 -535 -37 0 24 84 134 202 264 207 227 430 508 658 828 79 110
161 219 182 242 21 24 38 51 39 60 1 27 27 -34 34 -83z m-4332 -1058 c48 -27
189 -171 259 -262 76 -99 188 -370 188 -456 l0 -47 -62 -19 c-72 -23 -187 -46
-303 -62 -44 -6 -154 -25 -244 -41 -244 -43 -251 -42 -251 59 0 116 79 679
107 762 24 70 41 80 83 50 l32 -23 32 36 c17 19 38 37 46 40 21 6 65 -8 113
-37z m-508 -413 c-4 -21 -9 -103 -10 -183 -3 -207 -38 -332 -106 -382 -19 -15
-49 -21 -124 -25 l-98 -6 7 42 c6 40 155 342 219 444 16 26 39 50 51 53 22 5
56 54 56 80 0 8 3 14 6 14 3 0 3 -17 -1 -37z m6042 -335 c-3 -8 -6 -5 -6 6 -1
11 2 17 5 13 3 -3 4 -12 1 -19z m-4374 -61 l48 -13 -75 -84 c-87 -97 -134
-173 -177 -285 -41 -106 -48 -187 -21 -241 42 -81 147 -155 244 -171 108 -17
93 -94 -40 -199 -67 -52 -220 -134 -252 -134 -14 0 -45 25 -88 72 -101 109
-154 162 -186 185 -36 25 -37 59 -6 148 33 92 36 189 11 343 -11 73 -21 164
-21 203 0 110 -10 105 345 164 55 10 105 21 110 27 10 10 24 8 108 -15z m152
-271 c33 -33 65 -145 72 -252 6 -102 -6 -157 -39 -175 -46 -25 -243 22 -273
64 -8 12 -15 36 -15 55 0 77 165 332 214 332 9 0 28 -11 41 -24z m-1908 -53
c24 -36 22 -123 -5 -313 -12 -80 -39 -278 -61 -440 -49 -356 -83 -561 -117
-695 -57 -227 -204 -681 -296 -914 -63 -160 -262 -516 -364 -650 -135 -179
-325 -371 -420 -427 -51 -30 -167 -56 -213 -47 -54 10 -205 117 -260 184 -65
81 -164 250 -216 368 -36 82 -137 417 -180 601 -8 30 -18 114 -24 185 -6 72
-20 166 -31 210 -26 107 -38 373 -19 429 20 57 54 77 135 82 38 2 121 9 184
15 85 8 126 8 157 0 68 -19 160 -88 313 -236 80 -78 160 -153 178 -168 61 -50
97 -26 63 42 -21 40 -73 102 -191 226 -80 84 -115 134 -130 185 -11 40 1 53
106 110 181 99 252 156 445 354 l186 191 -5 80 c-3 50 2 131 13 210 10 79 15
155 11 193 l-5 63 52 23 c29 13 68 26 88 30 38 7 95 -8 102 -27 3 -7 -4 -45
-14 -85 -42 -166 -48 -516 -14 -748 17 -113 60 -309 83 -379 18 -53 45 -71 55
-36 3 12 0 56 -6 98 -7 47 -11 224 -11 438 0 298 3 377 17 460 20 112 36 145
71 145 44 0 49 21 21 95 -24 62 -24 69 -10 85 29 32 184 86 252 89 36 1 45 -3
60 -26z m-957 -235 c69 -36 85 -65 85 -156 0 -85 -26 -176 -77 -273 -23 -44
-39 -61 -70 -75 -45 -20 -82 -15 -246 32 -135 39 -171 59 -194 111 -34 77 -29
85 133 208 150 113 255 174 299 175 14 0 46 -10 70 -22z m2101 -71 c-8 -8 -11
-5 -11 9 0 27 14 41 18 19 2 -9 -1 -22 -7 -28z m-388 -30 c23 -23 79 -91 125
-151 89 -117 96 -139 66 -202 -24 -51 -129 -141 -209 -179 -80 -38 -248 -93
-309 -101 -38 -6 -43 -4 -54 20 -33 73 -40 267 -12 359 25 83 132 196 255 268
67 39 87 37 138 -14z"/>
<path d="M11224 5373 c1 -111 -1 -126 -41 -258 -60 -201 -169 -620 -198 -760
-31 -148 -62 -413 -51 -440 6 -16 9 -17 17 -5 16 27 77 222 128 416 27 104 66
239 86 299 91 278 185 673 185 778 0 71 -15 87 -80 87 l-48 0 2 -117z"/>
<path d="M10561 5386 c-6 -7 -18 -49 -25 -92 -23 -131 -69 -223 -178 -361 -86
-108 -215 -251 -239 -263 -30 -17 -49 1 -100 91 -53 97 -94 127 -146 109 -49
-18 -106 -110 -123 -202 -20 -106 26 -178 128 -198 130 -26 129 -25 179 -103
101 -157 240 -317 276 -317 29 0 16 35 -64 168 -78 129 -133 240 -143 289 -10
45 13 82 87 140 76 60 226 220 308 329 82 108 139 226 139 288 0 51 -10 78
-43 114 -24 25 -40 28 -56 8z m-657 -748 c6 -26 9 -57 7 -75 0 -7 -12 -13 -26
-13 -28 0 -31 13 -14 73 11 42 26 48 33 15z"/>
<path d="M8151 4719 c-129 -25 -271 -150 -352 -311 -70 -138 -99 -254 -99
-395 0 -161 24 -236 92 -286 35 -26 123 -34 197 -17 87 19 239 105 220 125 -3
2 -47 -9 -99 -26 -52 -16 -127 -32 -167 -36 l-71 -6 -28 54 c-52 103 -43 294
21 426 74 150 296 326 390 309 41 -8 123 -94 174 -182 62 -106 91 -125 91 -61
0 94 -67 253 -138 329 -59 63 -148 93 -231 77z"/>
</g>
</svg>
